<svg xmlns="http://www.w3.org/2000/svg" xmlns:xlink="http://www.w3.org/1999/xlink" id="Layer_1" width="72" height="72" x="0" y="0" baseProfile="tiny" version="1.1" viewBox="0 0 72 72" xml:space="preserve"><path fill="#56565A" d="M16.4,13.9c0.8,1.2,1.1,2.3,1.6,4.5c3-3,6.8-4.5,10.9-4.5c3.7,0,6.7,1.2,9.1,3.6c0.6,0.6,1.2,1.4,1.8,2.2	c4.1-4.2,7.7-5.8,12.6-5.8c3.5,0,6.8,1,8.8,2.8c2.5,2.2,3.3,4.8,3.3,10.9v31.7H53.1V29.9c0-5.3-0.6-6.4-3.7-6.4	c-2.2,0-5.2,1.5-7.8,3.8v32.1H30.6v-29c0-5.6-0.8-6.9-4.1-6.9c-2.2,0-5.1,1.1-7.7,3.4v32.5H7.5V28.2c0-6.4-0.4-9.2-1.7-11.4	L16.4,13.9z"/></svg>